<?xml version="1.0" encoding="UTF-8"?>
<svg id="icon" xmlns="http://www.w3.org/2000/svg" viewBox="0 0 25.6 32">
  <defs>
    <style>
      .cls-1 {
        fill: #5b5b5b;
      }
    </style>
  </defs>
  <path class="cls-1" d="M25.6,1.26v29.48c0,.69-.56,1.26-1.26,1.26H1.26c-.69,0-1.26-.56-1.26-1.26V1.26C0,.56.56,0,1.26,0h23.08c.69,0,1.26.56,1.26,1.26ZM12.8,6.74c-2.77,0-5.02,2.25-5.02,5.02s2.25,5.02,5.02,5.02,5.02-2.25,5.02-5.02-2.25-5.02-5.02-5.02ZM12.8,21.02c-6.49.48-9.73,2.13-10,3.58v5.09s19.99,0,19.99,0v-5.09c-.27-1.45-3.51-3.1-10-3.58"/>
</svg>